<svg width="200" height="43" viewBox="0 0 200 43" fill="none" xmlns="http://www.w3.org/2000/svg">
<g clip-path="url(#clip0_3_3)">
<path d="M102.757 28.9635V29.0652C102.757 29.02 102.768 28.9974 102.791 28.9974L102.757 28.9635ZM101.134 29.6058C101.438 29.8092 101.777 29.9429 102.251 29.9768C102.081 30.0785 101.913 30.1802 101.811 30.314C102.319 30.5833 102.251 30.1105 102.421 29.8073C101.913 30.0107 101.609 29.4702 101.136 29.6039L101.134 29.6058ZM101.1 28.9974C101.032 28.9635 100.93 28.9635 100.864 28.9296C100.932 28.9974 101.034 28.9974 101.134 29.0313C101.236 29.0313 101.338 29.0652 101.438 29.0652C101.336 29.0652 101.234 29.0313 101.1 28.9974ZM79.3431 42.1627C79.9528 42.1627 80.5607 42.1966 81.1704 42.2305C80.5607 42.061 79.9528 42.1288 79.3431 42.1627ZM77.5497 42.2305C78.0575 42.1966 78.5313 42.1627 79.0391 42.1627C78.5313 42.1627 78.0235 42.0271 77.5497 42.2305Z" fill="#E1AA14"/>
<path d="M141.33 20.7272C140.89 20.7272 140.484 20.7272 140.078 20.7611C139.874 20.7611 139.774 20.7611 139.774 20.5577C139.808 20.5238 139.808 20.4899 139.876 20.456H139.91C139.978 20.3882 140.08 20.3543 140.146 20.3543C139.876 20.3543 139.571 20.2865 139.335 20.085H139.301C139.278 20.0624 139.255 20.0511 139.233 20.0511C139.335 19.9155 139.571 19.8157 139.571 19.6461C139.571 19.5783 139.571 19.5444 139.537 19.4766C138.521 18.2618 137.133 17.823 135.68 17.5179V17.5518H135.612L135.646 17.5179C135.172 17.3483 134.698 17.3483 134.224 17.3144C133.447 17.4501 132.667 17.484 131.889 17.3144C131.653 17.2805 131.415 17.3144 131.179 17.3823C130.164 17.4162 129.184 17.484 128.202 17.6177C128.066 17.8211 127.864 17.6855 127.695 17.7533H127.627C127.604 17.7533 127.581 17.7646 127.559 17.7872C127.423 17.7872 127.289 17.7533 127.153 17.7533C126.509 17.7872 125.867 17.8889 125.189 17.9887C120.723 18.5971 116.324 19.6763 112.028 21.0606C109.625 21.8366 107.224 22.7482 105.024 23.9969C105.126 24.5374 104.788 24.3679 104.516 24.334C104.213 24.4696 103.907 24.6373 103.671 24.9085C103.739 24.9424 103.907 24.9085 103.841 25.0441C103.739 25.2475 103.571 25.4829 103.265 25.2795C102.419 25.9538 101.843 26.8333 101.505 27.8448C101.404 28.0143 101.336 28.1819 101.236 28.3514C101.202 28.4531 101.202 28.5868 101.032 28.487C99.7461 27.8787 98.3586 27.9126 97.005 27.9126C95.4155 27.8787 93.7901 27.8448 92.2686 28.3853C92.0326 28.487 91.8627 28.4192 91.7268 28.2158C91.287 26.596 90.2374 25.4132 88.8838 24.5016C86.9545 23.219 84.8232 22.4091 82.6919 21.6332C77.7177 19.8439 72.6093 18.6291 67.3991 17.919C65.3697 17.6158 63.3385 17.3785 61.2752 17.4124C61.1053 17.3785 60.9372 17.3785 60.7673 17.3785C60.0915 17.2768 59.3798 17.3107 58.704 17.3785C59.1099 17.4124 59.4818 17.4124 59.8876 17.4463C59.2439 17.5819 58.5681 17.6497 57.9263 17.4463C56.0309 17.7156 54.2375 18.2562 53.0879 19.9776C53.0539 20.0115 52.952 20.0115 52.884 20.0454V20.1132C53.0539 20.2149 53.12 20.3487 53.2219 20.4843H53.2559V20.5182C53.3239 20.586 53.3578 20.6877 53.2899 20.7875V20.8214C53.2899 20.8892 53.2559 20.9231 53.2219 20.957C53.2219 20.9231 53.1879 20.9231 53.1879 20.9231C52.9841 20.7875 52.7821 20.7197 52.5442 20.6877C52.4423 20.6877 52.2403 20.6538 52.1723 20.586C51.9024 20.2488 51.5626 20.1132 51.1907 20.0115C50.9547 19.9098 50.7169 19.842 50.5149 19.7422C50.4469 19.7083 50.3789 19.5068 50.2449 19.6744C50.143 19.7761 50.2449 19.8778 50.3129 19.9437C50.3808 20.0454 50.4828 20.1132 50.4828 20.2131C50.5168 20.247 50.5167 20.2809 50.5167 20.3148C51.0585 20.7197 51.7004 20.7875 52.3441 20.8892C52.5801 20.9231 52.682 20.957 52.682 21.2603C52.5121 24.2982 53.4598 26.9991 55.0852 29.5304C55.559 30.4759 56.2348 31.2519 56.9465 32.0279C61.1411 36.8551 66.3193 40.0965 72.6131 41.5468C74.2366 41.9178 75.862 42.189 77.5534 42.221C78.0273 42.0176 78.5351 42.1532 79.0429 42.1532H79.3468C79.9566 42.1193 80.5644 42.0515 81.1742 42.221C83.4754 42.0854 85.6406 41.5468 87.502 40.1285C90.8509 37.5972 92.2384 34.1204 92.0364 30.0013C92.0024 29.4946 92.1383 29.359 92.5782 29.2592C93.4239 29.0558 94.2357 28.9899 95.0814 28.9221C96.9087 28.8204 98.7021 28.8543 100.496 29.2592C100.731 29.327 101.037 29.2931 101.139 29.5964C101.613 29.4607 101.917 30.0013 102.425 29.7998C102.255 30.103 102.323 30.5757 101.815 30.3064C101.917 30.1708 102.085 30.071 102.255 29.9693C101.781 29.9354 101.443 29.7998 101.137 29.5982C101.103 29.6999 101.069 29.8016 101.035 29.8676C100.866 33.3105 101.745 36.3824 104.182 38.9137C106.246 41.1757 108.953 42.0534 111.93 42.221C112.37 42.0176 112.843 42.1532 113.317 42.1532C114.061 42.1532 114.807 42.0176 115.55 42.221C117.174 42.1871 118.731 41.9178 120.321 41.5468C127.392 39.9609 133.043 36.179 137.339 30.4062C139.201 27.9427 140.282 25.174 140.384 22.0682C140.384 21.7311 140.248 21.3262 140.384 21.0211C140.52 20.7178 141.028 20.9193 141.332 20.7178L141.33 20.7272ZM101.675 28.9635C101.607 29.0313 101.539 29.0652 101.471 29.0652H101.438C101.336 29.0652 101.234 29.0313 101.134 29.0313C101.032 28.9974 100.93 28.9974 100.864 28.9296C100.796 28.8957 100.762 28.8618 100.728 28.7601C100.864 28.6245 101.066 28.6923 101.202 28.6923C101.371 28.6923 101.573 28.6923 101.675 28.8279C101.709 28.8618 101.709 28.9635 101.675 28.9635ZM101.405 30.7867V30.7528H101.439C101.417 30.7528 101.405 30.7641 101.405 30.7867ZM102.793 28.9974C102.77 28.9974 102.759 29.02 102.759 29.0652V28.9296C102.691 28.8618 102.657 28.8279 102.623 28.7601L102.691 28.6923C102.895 28.6584 102.995 28.794 102.995 28.9616C103.029 29.1311 102.859 28.9955 102.791 28.9955L102.793 28.9974ZM129.32 17.823L129.252 17.7891L129.184 17.823C129.116 17.8569 129.048 17.8908 128.948 17.9247C128.948 17.8908 128.914 17.8569 128.88 17.823C128.948 17.8569 128.982 17.8569 129.016 17.8569C129.016 17.8569 129.05 17.7891 129.084 17.7891H129.118C129.152 17.7213 129.186 17.7213 129.22 17.7213C129.288 17.7213 129.356 17.7213 129.39 17.7552C129.412 17.7778 129.435 17.8004 129.458 17.823C129.526 17.8569 129.56 17.8908 129.628 17.9586C129.526 17.8908 129.424 17.8569 129.324 17.823H129.32ZM134.902 17.823C134.868 17.7891 134.902 17.7213 134.97 17.6874V17.823H134.902ZM138.793 20.4899V20.456C138.793 20.4221 138.827 20.3543 138.895 20.3204C138.929 20.2865 138.997 20.2526 139.065 20.2187C138.963 20.3543 138.861 20.4541 138.829 20.6236C138.795 20.5897 138.795 20.5219 138.795 20.488L138.793 20.4899Z" fill="#E1AA14"/>
<path d="M102.419 29.8073C102.249 30.1105 102.317 30.5833 101.809 30.3139C101.911 30.1783 102.079 30.0785 102.249 29.9768C101.775 29.9429 101.438 29.8073 101.132 29.6058C101.606 29.4702 101.909 30.0107 102.417 29.8092L102.419 29.8073Z" fill="#E1AA14"/>
<path d="M102.995 28.9635C103.029 29.133 102.859 28.9974 102.791 28.9974C102.768 28.9974 102.757 29.02 102.757 29.0652V28.9296C102.757 28.8618 102.723 28.794 102.621 28.7601L102.689 28.6923C102.893 28.6584 102.993 28.794 102.993 28.9616L102.995 28.9635Z" fill="#E1AA14"/>
<path d="M103.841 25.0478C103.739 25.2513 103.571 25.4867 103.265 25.2833C103.435 25.1816 103.705 25.2155 103.671 24.9122C103.739 24.9461 103.907 24.9122 103.841 25.0478Z" fill="#E1AA14"/>
<path d="M104.516 24.3397C104.752 24.3058 104.922 24.238 105.024 24.0025C105.126 24.5431 104.788 24.3736 104.516 24.3397Z" fill="#E1AA14"/>
<path d="M127.627 17.757C127.604 17.757 127.581 17.7683 127.559 17.7909C127.423 17.7909 127.289 17.757 127.153 17.757C127.289 17.7231 127.423 17.7231 127.525 17.7231C127.559 17.7231 127.593 17.757 127.627 17.757Z" fill="#E1AA14"/>
<path d="M115.547 42.2305C114.363 42.1966 113.144 42.1627 111.926 42.2305C112.366 42.0271 112.84 42.1627 113.314 42.1627C114.057 42.1627 114.803 42.0271 115.547 42.2305Z" fill="#E1AA14"/>
<path d="M129.622 17.9586C129.52 17.8908 129.418 17.8569 129.318 17.823L129.25 17.7891L129.182 17.823C129.114 17.8569 129.046 17.8908 128.946 17.9247C128.98 17.8908 128.98 17.8569 129.014 17.8569C129.014 17.8569 129.048 17.7891 129.082 17.7891H129.116C129.15 17.7213 129.184 17.7213 129.218 17.7213C129.286 17.7213 129.354 17.7213 129.388 17.7552C129.411 17.7778 129.433 17.8004 129.456 17.823C129.524 17.8569 129.558 17.8908 129.626 17.9586H129.622Z" fill="#E1AA14"/>
<path d="M135.68 17.5197V17.5536H135.612L135.646 17.5197H135.68Z" fill="#E1AA14"/>
<path d="M139.333 20.085H139.299C139.276 20.0624 139.253 20.0511 139.231 20.0511C139.333 19.9155 139.569 19.8157 139.569 19.6461C139.671 19.8496 139.637 19.9833 139.333 20.085Z" fill="#E1AA14"/>
<path d="M141.33 20.7272C140.89 20.7272 140.484 20.7272 140.078 20.7611C139.874 20.7611 139.774 20.7611 139.774 20.5577C139.808 20.5238 139.808 20.4899 139.876 20.456H139.91C139.933 20.4786 139.956 20.4899 139.978 20.4899H140.012C140.248 20.5916 140.452 20.5238 140.688 20.5577C140.892 20.5577 141.162 20.4899 141.332 20.7272H141.33Z" fill="#E1AA14"/>
<path d="M53.2239 20.4918C53.02 20.424 52.886 20.3562 52.886 20.1208C53.0559 20.2225 53.122 20.3562 53.2239 20.4918Z" fill="#E1AA14"/>
<path d="M53.2562 20.4918V20.5262C53.2562 20.5262 53.2219 20.5262 53.2219 20.4918H53.2562Z" fill="#E1AA14"/>
<path d="M53.29 20.795V20.8289C53.29 20.8967 53.256 20.9306 53.222 20.9645C53.222 20.9306 53.188 20.9306 53.188 20.9306C52.9841 20.795 52.7822 20.7272 52.5443 20.6952C52.4424 20.6952 52.2404 20.6613 52.1724 20.5935C51.9025 20.2564 51.5627 20.1208 51.1908 20.0191C50.9548 19.9174 50.7169 19.8496 50.5149 19.7497C50.447 19.7158 50.379 19.5143 50.245 19.6819C50.143 19.7836 50.245 19.8853 50.3129 19.9513C50.3809 20.053 50.4829 20.1208 50.4829 20.2206C50.313 20.0511 49.9411 19.9174 50.1789 19.6122C50.3828 19.3429 50.5848 19.68 50.8226 19.7139C51.7023 19.8156 52.3121 20.5916 53.1918 20.7611C53.2145 20.7837 53.2371 20.795 53.2598 20.795H53.2937H53.29Z" fill="#E1AA14"/>
<path d="M59.8877 17.4538C59.2439 17.5894 58.5681 17.6572 57.9263 17.4538C58.3321 17.4877 58.704 17.5216 59.0759 17.5216C58.94 17.4877 58.84 17.4538 58.704 17.386C59.1099 17.4199 59.4818 17.4199 59.8877 17.4538Z" fill="#E1AA14"/>
<path d="M53.2899 20.795V20.8289C53.2899 20.8968 53.256 20.9307 53.222 20.9646C53.222 20.9307 53.188 20.9307 53.188 20.9307C52.9841 20.795 52.7821 20.7272 52.5443 20.6952C52.4423 20.6952 52.2403 20.6613 52.1724 20.5935C51.9024 20.2564 51.5626 20.1208 51.1907 20.0191C50.9548 19.9174 50.7169 19.8496 50.5149 19.7497C50.4469 19.7158 50.379 19.5143 50.245 19.6819C50.143 19.7836 50.245 19.8853 50.3129 19.9513C50.3809 20.053 50.4828 20.1208 50.4828 20.2206C50.5168 20.2545 50.5168 20.2884 50.5168 20.3223C50.4828 20.2884 50.3469 20.2545 50.3129 20.1867C49.6371 19.2412 48.7555 18.3635 48.6215 17.0809C48.6215 16.9453 48.5875 16.8116 48.6215 16.7438C49.0953 16.0695 48.6894 15.4272 48.5875 14.8189C48.2836 12.894 48.3175 10.971 48.3175 8.97835C48.3175 8.4717 48.3515 7.93116 48.3855 7.42451C48.8254 6.10799 49.4351 4.92707 50.1789 3.84598C50.2808 3.98159 50.3488 4.11531 50.4488 4.25092C50.7188 4.89317 51.0246 5.46574 51.2946 6.14189C51.3965 6.37732 51.4984 6.68244 51.5985 6.91787C51.3285 7.56012 51.0567 8.23439 50.8547 8.87664C50.5508 8.13457 50.211 7.42451 49.907 6.64854C49.8391 6.88397 49.8391 7.05347 49.7711 7.22298C49.2293 8.94445 49.0613 10.6659 49.2293 12.4891C49.3313 13.5702 49.4653 14.6155 49.7371 15.6288C49.7711 15.7983 49.8051 15.932 49.8731 15.9659C50.0769 16.0676 50.211 16.2013 50.3129 16.3369C50.6508 16.8097 50.6168 17.3841 50.7867 17.8889C50.8547 18.0923 50.8207 18.3277 50.7188 18.4973C50.3809 19.0039 50.6848 19.3071 51.0227 19.4766C51.0227 19.5105 51.0567 19.5105 51.0567 19.5105C51.6325 19.8138 52.2743 19.8816 52.8501 20.0511L52.8841 20.085V20.1189C53.054 20.2206 53.12 20.3543 53.222 20.4899H53.256V20.5238C53.3239 20.5916 53.3579 20.6933 53.2899 20.7932V20.795Z" fill="#E1AA14"/>
<path d="M143.969 7.5281C143.665 7.4942 143.157 7.96694 143.055 7.22487C143.055 7.02146 143.055 6.81993 142.919 6.65042C142.716 6.54871 142.716 6.75212 142.684 6.85383C142.312 7.73151 141.94 8.6092 141.534 9.45298C140.89 10.939 140.214 12.4232 139.538 13.9092C139.538 13.3347 139.471 12.7622 139.369 12.1877V12.1538C139.301 11.7489 139.233 11.3439 139.099 10.939C139.708 9.8259 140.316 8.7448 140.79 7.56389C140.926 7.29455 141.026 7.02334 141.128 6.75401C141.466 5.84242 141.838 4.96474 142.346 4.12096C142.582 3.68212 142.921 3.41279 143.429 3.81773C143.971 4.79711 144.073 5.87633 144.275 6.95742C144.343 7.26065 144.377 7.56577 143.971 7.53187L143.969 7.5281Z" fill="#E1AA14"/>
<path d="M144.205 16.4744C144.509 16.9133 144.103 18.4991 143.663 18.8382C143.527 18.9399 143.359 19.0416 143.325 19.2092C143.021 20.2225 142.242 20.5935 141.328 20.7291C140.888 20.7291 140.482 20.7291 140.076 20.763C139.873 20.763 139.773 20.763 139.773 20.5596C139.806 20.5257 139.806 20.4918 139.874 20.4579H139.908C139.976 20.3901 140.078 20.3562 140.144 20.3562C139.874 20.3562 139.569 20.2884 139.333 20.0869H139.299C139.276 20.0643 139.253 20.053 139.231 20.053C139.333 19.9174 139.569 19.8175 139.569 19.648C139.569 19.5802 139.569 19.5463 139.535 19.4785C139.805 19.5802 139.771 20.0869 140.21 20.0191C140.92 19.8496 141.7 19.8157 142.24 19.277C142.376 19.1414 142.51 18.906 142.376 18.6347C142.004 17.8927 142.308 16.5761 142.952 16.0695C143.187 15.9 143.187 15.6646 143.255 15.4612C143.661 13.4685 143.729 11.4438 143.559 9.38518C143.525 8.6431 142.984 8.03475 142.984 7.25878C142.984 7.05536 142.95 6.85384 142.916 6.65042C143.152 6.88585 143.12 7.19097 143.186 7.4264C143.288 7.56201 143.355 7.4264 143.422 7.3925C143.692 7.25689 144.065 7.59591 144.165 7.22299C144.267 6.98756 144.063 6.68244 144.029 6.37921C143.961 5.50153 143.59 4.65775 143.42 3.81396C144.129 4.55604 144.231 5.56933 144.299 6.48091C144.569 9.5528 144.773 12.6247 144.129 15.6966C144.062 15.9659 144.062 16.2032 144.197 16.4726L144.205 16.4744Z" fill="#E1AA14"/>
<path d="M101.675 28.8298C101.709 28.8637 101.709 28.9654 101.675 28.9654C101.607 29.0332 101.54 29.0671 101.472 29.0671H101.438C101.336 29.0671 101.234 29.0332 101.134 29.0332C101.032 28.9993 100.93 28.9993 100.864 28.9315C100.796 28.8976 100.762 28.8637 100.728 28.762C100.864 28.6264 101.066 28.6942 101.202 28.6942C101.372 28.6942 101.573 28.6942 101.675 28.8298Z" fill="#E1AA14"/>
<path d="M129.622 17.9586C129.52 17.8908 129.418 17.8569 129.318 17.823L129.25 17.7891L129.182 17.823C129.114 17.823 129.08 17.8569 129.012 17.8569C129.012 17.8569 129.046 17.7891 129.08 17.7891H129.114C129.148 17.7213 129.182 17.7213 129.216 17.7213C129.284 17.7213 129.352 17.7213 129.386 17.7552C129.409 17.7778 129.431 17.8004 129.454 17.823C129.522 17.8569 129.556 17.8908 129.624 17.9586H129.622Z" fill="#E1AA14"/>
<path d="M134.224 17.3182C133.447 17.4538 132.667 17.4877 131.889 17.3182C132.667 17.386 133.445 17.386 134.224 17.3182Z" fill="#E1AA14"/>
<path d="M134.9 17.8249C134.866 17.791 134.9 17.7232 134.968 17.6893V17.8249H134.9Z" fill="#E1AA14"/>
<path d="M135.68 17.5197V17.5536H135.612L135.646 17.5197H135.68Z" fill="#E1AA14"/>
<path d="M129.182 17.8249C129.114 17.8588 129.046 17.8927 128.946 17.9266C128.946 17.8927 128.912 17.8588 128.878 17.8249C128.946 17.8588 128.98 17.8588 129.014 17.8588C129.014 17.8588 129.048 17.791 129.082 17.791H129.116C129.116 17.791 129.184 17.791 129.184 17.8249H129.182Z" fill="#E1AA14"/>
<path d="M81.1704 42.2305C79.9528 42.3322 78.7333 42.3322 77.5497 42.2305C78.0235 42.0271 78.5313 42.1627 79.0391 42.1627H79.3431C79.9528 42.1288 80.5607 42.061 81.1704 42.2305Z" fill="#E1AA14"/>
<path d="M115.547 42.2305C114.363 42.1966 113.144 42.1627 111.926 42.2305C112.366 42.0271 112.84 42.1627 113.314 42.1627C114.057 42.1627 114.803 42.0271 115.547 42.2305Z" fill="#E1AA14"/>
<path d="M134.224 17.3182C133.447 17.4538 132.667 17.4877 131.889 17.3182C132.667 17.386 133.445 17.386 134.224 17.3182Z" fill="#E1AA14"/>
<path d="M59.8877 17.4538C59.2439 17.5894 58.5681 17.6572 57.9263 17.4538C58.1962 17.4199 58.4341 17.4199 58.704 17.386C59.1099 17.4199 59.4818 17.4199 59.8877 17.4538Z" fill="#E1AA14"/>
<path d="M103.841 25.0478C103.739 25.2513 103.571 25.4867 103.265 25.2833C103.401 25.1477 103.535 25.0478 103.671 24.9122C103.739 24.9461 103.907 24.9122 103.841 25.0478Z" fill="#E1AA14"/>
<path d="M128.202 17.6215C128.067 17.8249 127.865 17.6893 127.695 17.7571H127.627C127.604 17.7571 127.581 17.7684 127.559 17.791C127.423 17.791 127.289 17.7571 127.153 17.7571C127.491 17.6215 127.863 17.6554 128.202 17.6215Z" fill="#E1AA14"/>
<path d="M104.516 24.3397C104.686 24.238 104.854 24.1042 105.024 24.0025C105.126 24.5431 104.788 24.3736 104.516 24.3397Z" fill="#E1AA14"/>
<path d="M102.995 28.9635C103.029 29.133 102.859 28.9974 102.791 28.9974C102.768 28.9974 102.757 29.02 102.757 29.0652V28.9296C102.757 28.8618 102.723 28.794 102.621 28.7601L102.689 28.6923C102.893 28.6584 102.993 28.794 102.993 28.9616L102.995 28.9635Z" fill="#E1AA14"/>
<path d="M129.622 17.9586C129.52 17.8908 129.418 17.8569 129.318 17.823H129.454C129.522 17.8569 129.556 17.8908 129.624 17.9586H129.622Z" fill="#E1AA14"/>
<path d="M134.968 17.6893V17.8249H134.9C134.866 17.791 134.9 17.7232 134.968 17.6893Z" fill="#E1AA14"/>
<path d="M138.893 20.3223C138.927 20.2884 138.995 20.2545 139.063 20.2206C138.961 20.3562 138.859 20.456 138.827 20.6256C138.793 20.5916 138.793 20.5238 138.793 20.4899V20.456C138.793 20.4221 138.827 20.3543 138.895 20.3204L138.893 20.3223Z" fill="#E1AA14"/>
<path d="M141.906 20.085C141.534 20.5577 141.196 20.5238 140.856 20.4899C140.552 20.4899 140.28 20.4221 140.01 20.4899H139.976C139.909 20.4899 139.875 20.5238 139.773 20.5577C139.807 20.5238 139.807 20.4899 139.875 20.456H139.909C139.976 20.3882 140.078 20.3543 140.145 20.3543C139.875 20.3543 139.569 20.2865 139.333 20.085C140.111 20.2545 140.922 20.3204 141.904 20.085H141.906Z" fill="#E1AA14"/>
<path d="M139.063 20.2206C138.961 20.3562 138.859 20.456 138.827 20.6255C138.793 20.5916 138.793 20.5238 138.793 20.4899V20.456C138.793 20.4221 138.827 20.3543 138.895 20.3204C138.929 20.2865 138.997 20.2526 139.065 20.2187L139.063 20.2206Z" fill="#E1AA14"/>
<path d="M53.2902 20.7951V20.829C53.2902 20.8968 53.2561 20.9307 53.2221 20.9646C53.2221 20.9307 53.188 20.9307 53.188 20.9307C53.188 20.8629 53.2221 20.829 53.188 20.7612C53.2221 20.6594 53.2221 20.5577 53.2221 20.4918H53.2561V20.5257C53.3243 20.5935 53.3584 20.6952 53.2902 20.7951Z" fill="#E1AA14"/>
<path d="M101.675 28.8298C101.709 28.8637 101.709 28.9654 101.675 28.9654C101.607 29.0332 101.54 29.0671 101.472 29.0671H101.438C101.336 29.0671 101.234 29.0332 101.134 29.0332C101.032 28.9993 100.93 28.9993 100.864 28.9315C100.796 28.8976 100.762 28.8637 100.728 28.762C100.864 28.6264 101.066 28.6942 101.202 28.6942C101.372 28.6942 101.573 28.6942 101.675 28.8298Z" fill="#E1AA14"/>
<path d="M134.968 17.6893V17.8249H134.9C134.866 17.791 134.9 17.7232 134.968 17.6893Z" fill="#E1AA14"/>
<path d="M20.0557 0.487807C19.9481 7.02334 19.8386 13.5589 19.731 20.0944L19.6309 20.117C14.1715 14.817 8.67998 8.43592 3.07707 0.587629C2.05201 0.595163 1.02506 0.600813 0 0.608347C0 10.2516 0 19.8948 0 29.538C0.900467 29.2366 1.80093 28.9409 2.7014 28.6471C2.72217 20.7348 2.74104 12.8224 2.76181 4.91012L2.82977 4.90635C8.4138 12.5079 13.8883 18.6611 19.3383 23.7502C20.3521 23.4827 21.3658 23.219 22.3814 22.961C22.5192 15.4649 22.657 7.96694 22.7967 0.470856C21.8831 0.476506 20.9694 0.480273 20.0576 0.485923L20.0557 0.487807Z" fill="#E1AA14"/>
<path d="M30.9463 19.2506C31.0105 16.5573 31.0728 13.8621 31.137 11.1688C36.5001 10.5284 41.8784 9.96152 47.2642 9.47183C47.2774 8.99909 47.2925 8.52634 47.3057 8.05172C41.9199 8.46796 36.5435 8.95012 31.1766 9.49443C31.2351 7.03089 31.2918 4.56924 31.3503 2.1057C37.0872 1.97762 42.8279 1.86462 48.5705 1.76668C48.5838 1.2977 48.5989 0.83061 48.6121 0.361633C41.9464 0.384235 35.2806 0.412486 28.6168 0.444505C28.462 7.48103 28.3072 14.5194 28.1505 21.556C34.8351 19.9927 41.5594 18.6498 48.3119 17.5273C48.3251 17.0602 48.3384 16.5931 48.3535 16.1241C42.5297 17.015 36.7248 18.0547 30.9463 19.2488V19.2506Z" fill="#E1AA14"/>
<path d="M54.4414 5.75579C54.1488 5.37156 53.8543 4.98546 53.5617 4.57675C53.49 4.71424 53.4862 4.8103 53.4164 4.90824C52.8802 5.87068 52.682 6.83123 52.8236 7.8012C52.9085 8.39072 53.0256 8.95763 53.2465 9.49441C53.2786 9.56787 53.3106 9.64132 53.3767 9.6545C53.5787 9.69406 53.7127 9.75809 53.8109 9.8259C53.6882 9.41719 53.6655 8.98023 53.6788 8.54139C53.7071 7.60532 53.9714 6.65042 54.4376 5.75579H54.4414ZM54.1526 10.9541C53.8392 11.2686 54.1054 11.3948 54.4433 11.4551C54.313 11.2987 54.2489 11.133 54.1526 10.9541ZM64.8279 -4.14035e-06C59.8216 -0.00942134 56.1668 1.15078 53.877 3.05682C53.1483 3.64822 52.5197 4.32814 52.093 5.06456C51.3493 6.20216 50.9396 7.48667 50.9018 8.75987C50.8735 9.69971 51.051 10.6056 51.4323 11.4193C51.4323 11.4777 51.4625 11.553 51.4946 11.6076C51.4946 11.6472 51.5248 11.7018 51.5588 11.7376C51.589 11.8318 51.6211 11.924 51.6853 12.0145C51.8457 12.3064 52.0402 12.5738 52.2705 12.8375C53.3163 14.1051 54.9455 15.0449 57.2051 15.5007L57.2391 15.5139C57.543 15.5666 57.8809 15.6137 58.1849 15.6646C58.2528 15.674 58.3548 15.6796 58.4208 15.689C59.2666 15.7795 60.1821 15.8228 61.1675 15.8077C61.2015 15.8209 61.2695 15.8134 61.3035 15.8077C62.2549 15.7964 63.3121 15.7192 64.4032 15.593C71.5069 14.7511 75.9054 12.3874 77.5591 9.64885C77.5591 9.61684 77.5949 9.59988 77.5949 9.56598C78.0537 8.78812 78.3085 7.97824 78.3236 7.16083C78.3897 3.44857 73.9213 0.0621494 64.8279 -4.14035e-06ZM74.903 9.52643C73.5627 11.7432 70.2364 13.7378 64.4353 14.3706C63.582 14.461 62.7986 14.5138 62.051 14.527V14.51C62.0057 14.5157 61.9604 14.5194 61.9151 14.5251C60.9977 14.5232 60.184 14.4573 59.4421 14.3443C59.3402 14.3198 59.2401 14.3141 59.1722 14.3028C57.8564 14.058 56.8181 13.6304 55.9875 13.0711C55.5552 12.7848 55.1928 12.4495 54.8983 12.086C54.7661 11.9674 54.7019 11.8431 54.6038 11.7206C54.5717 11.6867 54.5377 11.6528 54.5396 11.6133C54.5075 11.5605 54.4754 11.5059 54.4433 11.4532C54.313 11.2969 54.2489 11.1311 54.1526 10.9522C54.0884 10.826 54.0582 10.696 53.994 10.568C53.8996 10.3307 53.8392 10.0877 53.8128 9.82401C53.6901 9.41531 53.6674 8.97835 53.6806 8.53951C53.709 7.60344 53.9733 6.64854 54.4395 5.7539C54.6529 5.38286 54.902 5.01183 55.1833 4.66151C56.8672 2.65753 59.9877 1.25248 64.794 1.22235C72.4413 1.19975 75.626 4.23773 75.5637 7.2663C75.5486 7.96506 75.3636 8.67135 74.9728 9.3588C74.9728 9.40777 74.937 9.47558 74.9011 9.52643H74.903ZM54.1526 10.9522C53.8392 11.2667 54.1054 11.3929 54.4433 11.4532C54.313 11.2969 54.2489 11.1311 54.1526 10.9522ZM54.4414 5.7539C54.1488 5.36968 53.8543 4.98358 53.5617 4.57487C53.49 4.71236 53.4862 4.80842 53.4164 4.90635C52.8802 5.86879 52.682 6.82935 52.8236 7.79932C52.9085 8.38883 53.0256 8.95575 53.2465 9.49253C53.2786 9.56598 53.3106 9.63944 53.3767 9.65262C53.5787 9.69217 53.7127 9.75621 53.8109 9.82401C53.6882 9.41531 53.6655 8.97835 53.6788 8.53951C53.7071 7.60344 53.9714 6.64854 54.4376 5.7539H54.4414Z" fill="#E1AA14"/>
<path d="M106.786 0.274994C103.484 4.09084 100.143 7.84453 96.7634 11.6736C93.3862 7.9048 90.0486 4.15299 86.7488 0.278761C85.3953 0.278761 84.0417 0.280644 82.6882 0.282528C82.6146 4.77265 82.5391 9.26276 82.4655 13.7529C83.4018 13.7001 84.3381 13.6531 85.2745 13.6097L85.4368 2.10005H85.5048C88.5724 5.66916 91.6721 9.12904 94.8077 12.5946C94.8757 12.6737 94.9436 12.7547 95.0116 12.8338C95.0456 12.8639 95.0795 12.894 95.1135 12.9242V12.9392L95.1815 13.0296C95.2268 13.0748 95.2721 13.12 95.3174 13.1652C95.3287 13.1897 95.3401 13.2161 95.3514 13.2406L95.4193 13.3009C96.299 13.2877 97.1806 13.2783 98.0603 13.2745L98.0943 13.2293C98.1283 13.1935 98.1623 13.1577 98.1981 13.1219C98.2208 13.0974 98.2435 13.0711 98.2661 13.0466L98.3001 13.0315C98.3227 12.9901 98.3454 12.9505 98.368 12.9091C98.3907 12.8846 98.4134 12.8582 98.436 12.8338L98.47 12.8036C98.5379 12.7226 98.6078 12.6417 98.6758 12.5607C101.823 9.04429 104.934 5.58441 108.015 2.06803H108.083C108.113 5.83867 108.143 9.60743 108.175 13.3781C109.111 13.4026 110.05 13.4308 110.986 13.4628C110.939 9.06877 110.892 4.67659 110.844 0.282528C109.491 0.282528 108.137 0.282528 106.784 0.280644L106.786 0.274994Z" fill="#E1AA14"/>
<path d="M141.97 5.70683V5.688C141.896 5.49965 141.789 5.31131 141.683 5.1418C141.575 4.95345 141.436 4.76511 141.294 4.57677V4.55793C141.188 4.40726 141.047 4.23775 140.907 4.08707C138.802 1.61035 134.764 -0.0169419 128.742 9.10282e-06C119.615 0.0452116 115.128 3.34311 115.175 6.96685C115.186 7.7466 115.401 8.51504 115.856 9.2477C115.962 9.42286 116.066 9.59802 116.206 9.77506C117.806 11.9429 121.331 13.7642 126.745 14.6155C126.768 14.618 126.779 14.6193 126.779 14.6193C126.881 14.6437 126.985 14.6532 127.087 14.6626C127.155 14.6852 127.224 14.6908 127.292 14.6965C127.394 14.7059 127.498 14.7153 127.6 14.7247C127.668 14.7473 127.702 14.7511 127.772 14.7568C127.806 14.7756 127.874 14.7831 127.944 14.7888C128.068 14.8001 128.195 14.8114 128.319 14.8227C128.423 14.849 128.525 14.8585 128.627 14.8509C128.695 14.8735 128.799 14.8829 128.901 14.8924C128.969 14.898 129.037 14.9055 129.107 14.9112C134.681 15.4536 138.46 14.5967 140.613 12.7396C140.713 12.6586 140.811 12.5795 140.911 12.4797V12.4608C141.141 12.248 141.339 12.0314 141.502 11.7734C141.536 11.7583 141.534 11.7395 141.534 11.7225C141.568 11.7075 141.6 11.6924 141.6 11.6566C141.634 11.6415 141.632 11.6227 141.632 11.6058C141.664 11.5549 141.696 11.5022 141.73 11.4513C141.796 11.3854 141.828 11.3138 141.894 11.2479V11.2291C141.926 11.1763 141.959 11.1255 141.957 11.0709C141.989 11.037 142.023 11.0031 142.021 10.9673C142.087 10.8825 142.117 10.7733 142.147 10.6659C142.498 9.92573 142.644 9.12339 142.619 8.27207C142.595 7.40193 142.366 6.53743 141.97 5.70871V5.70683ZM131.978 13.8376C131.876 13.8452 131.774 13.8527 131.672 13.8433C131.638 13.8565 131.604 13.8546 131.57 13.8508C131.4 13.8508 131.264 13.8565 131.093 13.8395C130.889 13.8376 130.683 13.8358 130.479 13.8339C130.411 13.8282 130.377 13.8245 130.309 13.8339C129.967 13.8037 129.626 13.7887 129.25 13.7566C129.193 13.751 129.137 13.7472 129.08 13.7416C128.806 13.7171 128.533 13.6945 128.293 13.6568L128.259 13.6531C127.951 13.6097 127.644 13.5853 127.37 13.5137H127.336L127.268 13.5062C126.618 13.4214 126.001 13.3065 125.418 13.1652C125.35 13.1596 125.28 13.1389 125.212 13.1182C121.952 12.3384 119.879 11.0294 118.83 9.54905C118.69 9.38519 118.584 9.20814 118.514 9.0311C118.127 8.38508 117.946 7.71834 117.935 7.04219C117.888 4.10026 121.091 1.14891 128.772 1.16962C134.73 1.19034 138.072 3.23952 139.265 5.8349C139.406 6.05715 139.48 6.27751 139.555 6.49787V6.51671C139.667 6.82936 139.744 7.14013 139.752 7.44713C139.825 7.65054 139.831 7.86714 139.837 8.08373L139.84 8.22875C139.825 8.89549 139.71 9.57353 139.421 10.1781C139.391 10.3005 139.359 10.406 139.295 10.5096C139.263 10.5793 139.231 10.6471 139.165 10.713C139.133 10.7827 139.1 10.8693 139.034 10.9353C139.034 10.9541 139.002 10.9861 139.002 11.0049C138.97 11.0558 138.936 11.0878 138.904 11.1387C137.726 12.668 135.516 13.7435 131.976 13.8414L131.978 13.8376Z" fill="#E1AA14"/>
<path d="M165.295 0.416232C162.331 6.30575 159.377 11.6152 156.415 16.4726L156.347 16.4613C153.046 10.5868 149.74 5.25855 146.45 0.346545C145.468 0.342778 144.486 0.340895 143.507 0.337128C147.25 5.68421 151.014 11.5285 154.777 18.0565C155.849 18.2449 156.923 18.4407 157.993 18.6404C161.399 13.2236 164.793 7.21356 168.206 0.429416C167.236 0.425649 166.267 0.419999 165.297 0.416232H165.295Z" fill="#E1AA14"/>
<path d="M170.979 0.440735C171.136 7.44713 171.291 14.4535 171.447 21.4618C172.367 21.6746 173.284 21.8931 174.2 22.1154C174.051 14.8961 173.902 7.67502 173.752 0.455802C172.827 0.452036 171.902 0.446385 170.979 0.442618V0.440735Z" fill="#E1AA14"/>
<path d="M182.868 22.4035C182.823 19.2676 182.776 16.1317 182.731 12.9976C188.081 13.7698 193.415 14.6193 198.731 15.544C198.731 14.7681 198.731 13.9902 198.73 13.2142C193.402 12.4288 188.06 11.7075 182.702 11.0501L182.576 2.45036C188.32 2.60668 194.061 2.77808 199.796 2.96454C199.796 2.17914 199.796 1.39187 199.796 0.606472C193.134 0.561269 186.47 0.521717 179.807 0.485931C179.935 8.2005 180.063 15.9132 180.192 23.6277C186.842 25.3756 193.448 27.3457 199.998 29.538V27.1743C194.323 25.4321 188.611 23.8425 182.868 22.4035Z" fill="#E1AA14"/>
</g>
<defs>
<clipPath id="clip0_3_3">
<rect width="200" height="42.3077" fill="white"/>
</clipPath>
</defs>
</svg>
